<svg width="18" height="13" viewBox="0 0 18 13" fill="none" xmlns="http://www.w3.org/2000/svg">
<path d="M7.62117 5.62335L2.19101 0.366722C2.07195 0.25052 1.93031 0.158288 1.77424 0.0953466C1.61818 0.0324051 1.45078 0 1.28171 0C1.11265 0 0.945252 0.0324051 0.789187 0.0953466C0.633122 0.158288 0.491475 0.25052 0.372418 0.366722C0.133886 0.599008 0 0.91323 0 1.24076C0 1.56829 0.133886 1.88251 0.372418 2.1148L4.90609 6.50358L0.372418 10.8924C0.133886 11.1247 0 11.4389 0 11.7664C0 12.0939 0.133886 12.4082 0.372418 12.6404C0.492086 12.7554 0.634008 12.8463 0.790045 12.908C0.946082 12.9696 1.11317 13.0009 1.28171 13C1.45026 13.0009 1.61734 12.9696 1.77338 12.908C1.92942 12.8463 2.07134 12.7554 2.19101 12.6404L7.62117 7.38382C7.74121 7.26857 7.83649 7.13145 7.90151 6.98037C7.96652 6.82929 8 6.66725 8 6.50358C8 6.33992 7.96652 6.17787 7.90151 6.0268C7.83649 5.87572 7.74121 5.7386 7.62117 5.62335Z" fill="white"/>
<path d="M17.6212 5.62335L12.191 0.366722C12.072 0.25052 11.9303 0.158288 11.7742 0.0953466C11.6182 0.0324051 11.4508 0 11.2817 0C11.1126 0 10.9453 0.0324051 10.7892 0.0953466C10.6331 0.158288 10.4915 0.25052 10.3724 0.366722C10.1339 0.599008 10 0.91323 10 1.24076C10 1.56829 10.1339 1.88251 10.3724 2.1148L14.9061 6.50358L10.3724 10.8924C10.1339 11.1247 10 11.4389 10 11.7664C10 12.0939 10.1339 12.4082 10.3724 12.6404C10.4921 12.7554 10.634 12.8463 10.79 12.908C10.9461 12.9696 11.1132 13.0009 11.2817 13C11.4503 13.0009 11.6173 12.9696 11.7734 12.908C11.9294 12.8463 12.0713 12.7554 12.191 12.6404L17.6212 7.38382C17.7412 7.26857 17.8365 7.13145 17.9015 6.98037C17.9665 6.82929 18 6.66725 18 6.50358C18 6.33992 17.9665 6.17787 17.9015 6.0268C17.8365 5.87572 17.7412 5.7386 17.6212 5.62335Z" fill="white"/>
</svg>
