<svg xmlns="http://www.w3.org/2000/svg" viewBox="0 0 1805.85 3071.06"><defs><style>.cls-1{fill:#7695ad;}.cls-1,.cls-2{opacity:0.3;}.cls-2{fill:#e20046;}</style></defs><g id="Laag_2" data-name="Laag 2"><g id="Laag_1-2" data-name="Laag 1"><path class="cls-1" d="M1805.85,292.94,1580.12,603.63l-225.73,310.7L1128.66,1225a384.48,384.48,0,0,0-451.46,0L451.46,914.32,225.73,603.63,0,292.94C253.34,108.65,565.32,0,902.93,0S1552.51,108.65,1805.85,292.94Z"/><path class="cls-2" d="M372,2898.82l132.73-182.68,132.72-182.69L770.2,2350.77a226.08,226.08,0,0,0,265.45,0l132.73,182.68,132.73,182.69,132.73,182.68c-149,108.36-332.4,172.24-530.91,172.24S521,3007.18,372,2898.82Z"/></g></g></svg>