<svg width="34" height="64" viewBox="0 0 34 64" fill="none" xmlns="http://www.w3.org/2000/svg">
<path d="M10.9215 63.9999C10.5615 63.9999 10.1864 63.9399 9.79638 63.8199C8.58125 63.4449 7.81616 62.4998 7.81616 61.3747V33.4716C7.81616 32.0015 9.16631 30.8613 10.8915 30.8613H30.2136C31.4437 30.8613 32.5239 31.4464 33.0189 32.3915C33.424 33.1716 33.364 34.0867 32.8539 34.8218L13.5318 62.7248C13.0517 63.4149 12.1066 63.9999 10.9215 63.9999ZM10.8165 60.9846C10.9215 60.9996 11.0265 60.9846 11.1015 60.9696L29.8686 33.8617H10.8915C10.8615 33.8617 10.8465 33.8617 10.8165 33.8617V60.9846Z" fill="#999999"/>
<path d="M23.0729 33.8616H3.75083C2.5207 33.8616 1.44058 33.2766 0.945525 32.3315C0.540481 31.5514 0.600487 30.6363 1.11054 29.9012L20.4327 1.99816C21.0627 1.09806 22.4879 0.377986 24.1681 0.903044C25.3832 1.27808 26.1483 2.22319 26.1483 3.34831V31.2514C26.1483 32.7065 24.7981 33.8616 23.0729 33.8616ZM4.09587 30.8613H23.0729C23.1029 30.8613 23.1179 30.8613 23.148 30.8613V3.72335C23.0429 3.70835 22.9379 3.72335 22.8629 3.73835L4.09587 30.8613Z" fill="white"/>
</svg>
